# xmcd
#
# Track frame offsets:
#	150
#	4442
#	16980
#	30392
#	42925
#	59395
#	70765
#	82467
#	96202
#	105835
#	118602
#	129697
#	142080
#	149842
#	161005
#	176652
#	184667
#	196517
#	212297
#	222047
#
# Disc length: 3002 seconds
#
# Revision: 1
# Processed by: cddbd v1.5.2PL0 Copyright (c) Steve Scherf et al.
# Submitted via: audiograbber 1.83.01
#
DISCID=1e0bb814
DTITLE=Hank Williams - 20 Golden Greats
DYEAR=1997
DGENRE=Country
TTITLE0=Happy Rovin' Cowboy (Introduction)
TTITLE1=Love Sick Blues
TTITLE2=A Mansion On The Hill
TTITLE3=You're Gonna Change (Or I'm Gonna Leave)
TTITLE4=A Tramp On The Street
TTITLE5=I'm A Long Gone Daddy
TTITLE6=When God Comes And Gathers All His Jewels
TTITLE7=Lost Highway
TTITLE8=I'll Have A New Boby (I'll Have A New Life)
TTITLE9=I Can't Get You Off My Mind
TTITLE10=The Prodigal Son
TTITLE11=Pan American
TTITLE12=There'll Be No Teardrops Tonight
TTITLE13=Mind Your Business
TTITLE14=Wedding Bells
TTITLE15=I've Just Told Mama Goodbye
TTITLE16=I'm So Lonesome I Could Cry
TTITLE17=Thy Burdens Are Greater Then mine
TTITLE18=I Saw The Light
TTITLE19=Sally Goodin
EXTD=
EXTT0=
EXTT1=
EXTT2=
EXTT3=
EXTT4=
EXTT5=
EXTT6=
EXTT7=
EXTT8=
EXTT9=
EXTT10=
EXTT11=
EXTT12=
EXTT13=
EXTT14=
EXTT15=
EXTT16=
EXTT17=
EXTT18=
EXTT19=
PLAYORDER=
